<svg width="16" height="16" viewBox="0 0 16 16" fill="none" xmlns="http://www.w3.org/2000/svg">
<path fill-rule="evenodd" clip-rule="evenodd" d="M8.29804 1.32872C7.59895 1.32872 6.9506 1.69248 6.58613 2.29129L0.939459 11.6853C0.578685 12.3078 0.576564 13.0629 0.92847 13.6782C1.28038 14.2934 1.93346 14.6764 2.64404 14.6841L13.9447 14.6842C14.6626 14.6764 15.3157 14.2934 15.6676 13.6782C16.0195 13.0629 16.0174 12.3078 15.662 11.6945L10.0099 2.29129C9.64547 1.69248 8.99712 1.32872 8.29804 1.32872ZM2.08684 13.0202C1.96954 12.8151 1.97025 12.5634 2.0887 12.359L7.72883 2.97594C7.84984 2.77816 8.06552 2.65744 8.29804 2.65744C8.53107 2.65744 8.74718 2.77869 8.86804 2.97725L14.5128 12.3681C14.6258 12.5634 14.6265 12.8151 14.5092 13.0202C14.3919 13.2253 14.1742 13.3529 13.9374 13.3555L2.65137 13.3555C2.42184 13.3529 2.20414 13.2253 2.08684 13.0202ZM7.63137 6.0475V8.70494C7.63137 9.07186 7.92985 9.3693 8.29804 9.3693C8.66623 9.3693 8.9647 9.07186 8.9647 8.70494V6.0475C8.9647 5.68058 8.66623 5.38314 8.29804 5.38314C7.92985 5.38314 7.63137 5.68058 7.63137 6.0475ZM8.76944 10.2282C9.02979 10.4877 9.02979 10.9083 8.76944 11.1678C8.50909 11.4272 8.08698 11.4272 7.82663 11.1678C7.56628 10.9083 7.56628 10.4877 7.82663 10.2282C8.08698 9.9688 8.50909 9.9688 8.76944 10.2282Z" fill="#F95E5A"/>
<mask id="mask0" mask-type="alpha" maskUnits="userSpaceOnUse" x="0" y="1" width="16" height="14">
<path fill-rule="evenodd" clip-rule="evenodd" d="M8.29804 1.32872C7.59895 1.32872 6.9506 1.69248 6.58613 2.29129L0.939459 11.6853C0.578685 12.3078 0.576564 13.0629 0.92847 13.6782C1.28038 14.2934 1.93346 14.6764 2.64404 14.6841L13.9447 14.6842C14.6626 14.6764 15.3157 14.2934 15.6676 13.6782C16.0195 13.0629 16.0174 12.3078 15.662 11.6945L10.0099 2.29129C9.64547 1.69248 8.99712 1.32872 8.29804 1.32872ZM2.08684 13.0202C1.96954 12.8151 1.97025 12.5634 2.0887 12.359L7.72883 2.97594C7.84984 2.77816 8.06552 2.65744 8.29804 2.65744C8.53107 2.65744 8.74718 2.77869 8.86804 2.97725L14.5128 12.3681C14.6258 12.5634 14.6265 12.8151 14.5092 13.0202C14.3919 13.2253 14.1742 13.3529 13.9374 13.3555L2.65137 13.3555C2.42184 13.3529 2.20414 13.2253 2.08684 13.0202ZM7.63137 6.0475V8.70494C7.63137 9.07186 7.92985 9.3693 8.29804 9.3693C8.66623 9.3693 8.9647 9.07186 8.9647 8.70494V6.0475C8.9647 5.68058 8.66623 5.38314 8.29804 5.38314C7.92985 5.38314 7.63137 5.68058 7.63137 6.0475ZM8.76944 10.2282C9.02979 10.4877 9.02979 10.9083 8.76944 11.1678C8.50909 11.4272 8.08698 11.4272 7.82663 11.1678C7.56628 10.9083 7.56628 10.4877 7.82663 10.2282C8.08698 9.9688 8.50909 9.9688 8.76944 10.2282Z" fill="white"/>
</mask>
<g mask="url(#mask0)">
<rect width="16" height="15.9446" fill="#F95E5A"/>
</g>
</svg>
